<svg id="Capa_1" data-name="Capa 1" xmlns="http://www.w3.org/2000/svg" viewBox="0 0 32 32"><defs><style>.cls-1{fill:none;stroke:#fff;stroke-miterlimit:10;stroke-width:1.3px;}.cls-2{fill:#fff;}</style></defs><title>ayuda-remuneracion</title><circle class="cls-1" cx="16" cy="16" r="14.7"/><path class="cls-2" d="M17.16,12.13a1.42,1.42,0,0,0-1.58-1.48,3,3,0,0,0-2.14,1.08L11.55,10A5.9,5.9,0,0,1,16,7.87c2.52,0,4.44,1.25,4.44,4s-3.52,3.77-3.24,6.54h-3C13.72,15.22,17.16,13.9,17.16,12.13ZM13.62,22a2.08,2.08,0,1,1,2.08,2.16A2.09,2.09,0,0,1,13.62,22Z"/></svg>